<svg width="50" height="50" viewBox="0 0 50 50" fill="none" xmlns="http://www.w3.org/2000/svg">
<circle cx="25" cy="25" r="25" fill="#FFF5D9"/>
<path d="M28.6475 34.9727H17.0713C16.4517 34.972 15.8577 34.7256 15.4196 34.2875C14.9814 33.8494 14.735 33.2553 14.7344 32.6357V25.7271C14.735 25.1075 14.9814 24.5134 15.4196 24.0753C15.8577 23.6372 16.4517 23.3908 17.0713 23.3901H28.6475C29.2671 23.3908 29.8611 23.6372 30.2992 24.0753C30.7373 24.5134 30.9837 25.1075 30.9844 25.7271V32.6357C30.9837 33.2553 30.7373 33.8494 30.2992 34.2875C29.8611 34.7256 29.2671 34.972 28.6475 34.9727ZM17.0713 24.855C16.8401 24.8552 16.6184 24.9472 16.4549 25.1107C16.2914 25.2742 16.1995 25.4958 16.1992 25.7271V32.6357C16.1995 32.867 16.2914 33.0886 16.4549 33.2521C16.6184 33.4156 16.8401 33.5076 17.0713 33.5078H28.6475C28.8787 33.5076 29.1003 33.4156 29.2638 33.2521C29.4273 33.0886 29.5193 32.867 29.5195 32.6357V25.7271C29.5193 25.4958 29.4273 25.2742 29.2638 25.1107C29.1003 24.9472 28.8787 24.8552 28.6475 24.855H17.0713Z" fill="#FFBB38"/>
<path d="M31.9297 31.0283H30.252C30.0577 31.0283 29.8714 30.9512 29.7341 30.8138C29.5967 30.6764 29.5195 30.4901 29.5195 30.2959C29.5195 30.1016 29.5967 29.9154 29.7341 29.778C29.8714 29.6406 30.0577 29.5635 30.252 29.5635H31.9297C32.1607 29.563 32.3821 29.4709 32.5454 29.3074C32.7087 29.144 32.8005 28.9224 32.8008 28.6914V21.7827C32.8007 21.5516 32.7089 21.3299 32.5456 21.1664C32.3823 21.0028 32.1608 20.9107 31.9297 20.9102H20.3535C20.1223 20.9104 19.9006 21.0024 19.7372 21.1659C19.5737 21.3294 19.4817 21.551 19.4814 21.7822V24.1221C19.4814 24.3163 19.4043 24.5026 19.2669 24.64C19.1296 24.7773 18.9433 24.8545 18.749 24.8545C18.5548 24.8545 18.3685 24.7773 18.2311 24.64C18.0938 24.5026 18.0166 24.3163 18.0166 24.1221V21.7827C18.0171 21.163 18.2635 20.5689 18.7016 20.1307C19.1397 19.6924 19.7338 19.446 20.3535 19.4453H31.9297C32.5492 19.4462 33.143 19.6928 33.581 20.131C34.0189 20.5692 34.2651 21.1632 34.2656 21.7827V28.6914C34.265 29.3108 34.0187 29.9047 33.5808 30.3428C33.1429 30.7809 32.5491 31.0274 31.9297 31.0283Z" fill="#FFBB38"/>
<path d="M30.252 29.7378H15.4668C15.2725 29.7378 15.0863 29.6606 14.9489 29.5233C14.8115 29.3859 14.7344 29.1996 14.7344 29.0054V26.5454C14.7344 26.3512 14.8115 26.1649 14.9489 26.0275C15.0863 25.8902 15.2725 25.813 15.4668 25.813H30.252C30.4462 25.813 30.6325 25.8902 30.7699 26.0275C30.9072 26.1649 30.9844 26.3512 30.9844 26.5454V29.0054C30.9844 29.1996 30.9072 29.3859 30.7699 29.5233C30.6325 29.6606 30.4462 29.7378 30.252 29.7378ZM16.1992 28.273H29.5195V27.2778H16.1992V28.273Z" fill="#FFBB38"/>
</svg>
